<?xml version="1.0"?>
<svg width="24" height="24" xmlns="http://www.w3.org/2000/svg" xmlns:svg="http://www.w3.org/2000/svg" class="w-6 h-6 text-gray-800 dark:text-white">

 <g class="layer" display="inline">
  <title>Layer 1</title>
  <path d="m8.32,2.89c-0.55,0 -1,0.45 -1,1l0,0.73c-0.06,0.02 -0.12,0.05 -0.18,0.07l-0.56,-0.54c-0.38,-0.37 -1,-0.37 -1.39,0l-1.88,1.84c-0.19,0.18 -0.3,0.44 -0.3,0.71c0,0.27 0.11,0.53 0.3,0.72l0.53,0.51c-0.02,0.05 -0.04,0.09 -0.06,0.14l-0.78,0c-0.55,0 -1,0.45 -1,1l0,2.59c0,0.55 0.45,1 1,1l0.78,0c0.02,0.05 0.04,0.09 0.06,0.14l-0.53,0.51c-0.19,0.19 -0.3,0.45 -0.3,0.72c0,0.27 0.11,0.53 0.3,0.71l1.88,1.83c0.39,0.38 1.01,0.38 1.39,0l0.56,-0.53c0.06,0.02 0.12,0.05 0.18,0.07l0,0.73c0,0.55 0.45,1 1,1l2.66,0c0.55,0 1,-0.45 1,-1l0,-0.73c0.13,-0.05 0.26,-0.11 0.39,-0.17l0.54,0.27l0,0.43c0,0.55 0.45,1 1,1l0.09,0l0,0.06c0,0.55 0.45,1 1,1l0.09,0l0,0.07c0,0.55 0.45,1 1,1l0.69,0l0.49,0.48c1.17,1.13 3.02,1.13 4.19,0l0.24,-0.24c0.19,-0.19 0.3,-0.45 0.3,-0.73c0,-0.27 -0.12,-0.53 -0.32,-0.72l-6.22,-5.78c0.02,-0.04 0.04,-0.08 0.06,-0.12l0.78,0c0.55,0 1,-0.45 1,-1l0,-2.59c0,-0.55 -0.45,-1 -1,-1l-0.78,0c-0.02,-0.05 -0.04,-0.09 -0.06,-0.14l0.53,-0.51c0.19,-0.19 0.3,-0.45 0.3,-0.72c0,-0.27 -0.11,-0.53 -0.3,-0.71l-1.88,-1.84c-0.39,-0.37 -1.01,-0.37 -1.4,0l-0.55,0.54c-0.06,-0.02 -0.12,-0.05 -0.18,-0.07l0,-0.73c0,-0.55 -0.45,-1 -1,-1l-2.66,0z" fill="#bfbfbf" id="svg_2" stroke="#56aaff" stroke-linejoin="round" stroke-width="2"/>
  <path d="m7.24,11.84l-0.85,0l0.96,-2.91l1.08,0l0.96,2.91l-0.85,0l-0.64,-2.11l-0.02,0l-0.64,2.11zm-0.16,-1.15l1.61,0l0,0.59l-1.61,0l0,-0.59zm2.59,1.15l0,-2.91l1.26,0c0.21,0 0.4,0.04 0.56,0.13c0.17,0.08 0.29,0.2 0.38,0.36c0.09,0.15 0.14,0.33 0.14,0.54c0,0.21 -0.05,0.39 -0.14,0.54c-0.09,0.15 -0.22,0.27 -0.39,0.35c-0.17,0.09 -0.36,0.13 -0.58,0.13l-0.75,0l0,-0.62l0.59,0c0.09,0 0.17,-0.01 0.24,-0.05c0.06,-0.03 0.11,-0.08 0.15,-0.14c0.03,-0.06 0.05,-0.13 0.05,-0.21c0,-0.08 -0.02,-0.16 -0.05,-0.21c-0.04,-0.06 -0.09,-0.11 -0.15,-0.14c-0.07,-0.03 -0.15,-0.05 -0.24,-0.05l-0.28,0l0,2.28l-0.79,0zm3.42,-2.91l0,2.91l-0.79,0l0,-2.91l0.79,0z" fill="#ffffff" id="svg_1"/>
 </g>
</svg>